<svg width="18" height="22" viewBox="0 0 18 22" fill="none" xmlns="http://www.w3.org/2000/svg">
<path d="M11.1905 1.63862L11.7234 1.11087C11.5825 0.968642 11.3906 0.888623 11.1905 0.888622L11.1905 1.63862ZM16.4897 6.98946H17.2397C17.2397 6.79181 17.1617 6.60215 17.0226 6.46171L16.4897 6.98946ZM4.15186 21.6518H13.9897V20.1518H4.15186V21.6518ZM0.901855 4.1386V18.4018H2.40186V4.1386H0.901855ZM11.1905 0.888622L4.15187 0.888603L4.15186 2.3886L11.1905 2.38862L11.1905 0.888622ZM17.2397 18.4018V6.98946H15.7397V18.4018H17.2397ZM17.0226 6.46171L11.7234 1.11087L10.6576 2.16638L15.9568 7.51722L17.0226 6.46171ZM10.4405 1.63862V4.48946H11.9405V1.63862H10.4405ZM13.6905 7.73946H16.4897V6.23946H13.6905V7.73946ZM2.40186 4.1386C2.40186 3.1721 3.18536 2.3886 4.15186 2.3886L4.15187 0.888603C2.35694 0.888598 0.901855 2.34367 0.901855 4.1386H2.40186ZM13.9897 21.6518C15.7846 21.6518 17.2397 20.1967 17.2397 18.4018H15.7397C15.7397 19.3683 14.9562 20.1518 13.9897 20.1518V21.6518ZM10.4405 4.48946C10.4405 6.28439 11.8955 7.73946 13.6905 7.73946V6.23946C12.724 6.23946 11.9405 5.45596 11.9405 4.48946H10.4405ZM4.15186 20.1518C3.18536 20.1518 2.40186 19.3683 2.40186 18.4018H0.901855C0.901855 20.1967 2.35693 21.6518 4.15186 21.6518V20.1518Z" fill="#CCCCCC"/>
</svg>
