<svg width="116" height="116" viewBox="0 0 116 116" fill="none" xmlns="http://www.w3.org/2000/svg">
<path d="M69.3011 1.10035C65.6458 0.378457 61.8671 0 58 0C25.9675 0 0 25.9675 0 58C0 84.2086 17.3835 106.357 41.2494 113.545C41.7446 111.362 42.5933 107.815 43.7956 102.904L47.0012 90.1025C47.0012 90.0097 46.6295 89.9633 45.8862 89.9633C45.4216 89.9633 44.4924 89.8706 43.0987 89.685C41.7049 89.4995 39.6143 88.8501 36.8268 87.7369C34.0393 86.6237 31.5306 85.2321 29.3006 83.5623C27.0706 81.8925 24.9799 79.4341 23.0287 76.1872C21.0774 72.9403 20.1947 69.1368 20.3806 64.7767C20.3806 59.2106 21.9137 53.9692 24.9799 49.0525C28.0462 44.1358 31.8093 40.1467 36.2693 37.0854C40.7293 34.024 45.2358 31.612 49.7887 29.8494C54.3416 28.0868 58.4299 27.2055 62.0537 27.2055C62.5183 27.2055 62.797 27.02 62.8899 26.6489L67.0712 9.67233C67.9479 6.31224 68.6912 3.45491 69.3011 1.10035Z" fill="#212529"/>
<path d="M46.4781 114.856C50.202 115.606 54.055 116 58 116C90.0325 116 116 90.0325 116 58C116 31.7539 98.5668 9.57955 74.6482 2.42476C74.0886 4.63522 73.4213 7.23662 72.6462 10.2289C71.9958 12.8265 71.3453 15.5631 70.6949 18.4389C70.0445 21.3148 69.487 23.4484 69.0224 24.84L68.4649 27.0664C68.4649 27.1592 68.883 27.2055 69.7193 27.2055C70.5555 27.2055 72.0422 27.4839 74.1793 28.0405C76.3164 28.5971 78.5464 29.3856 80.8693 30.4061C84.9576 32.3542 88.3491 35.1836 91.0437 38.8944C93.7382 42.6051 95.0855 47.1044 95.0855 52.3921C95.0855 57.6799 93.6453 62.7358 90.7649 67.5598C87.8845 72.3837 84.3072 76.3728 80.033 79.5269C75.7589 82.681 71.2524 85.1857 66.5137 87.0411C61.7749 88.8965 57.3614 89.8706 53.2731 89.9633H52.7156L49.3706 103.183C48.8131 105.316 48.2091 107.868 47.5587 110.836C47.1162 112.603 46.756 113.943 46.4781 114.856Z" fill="#212529"/>
<path d="M33.0637 75.9089C31.9487 73.5897 31.3912 70.853 31.3912 67.6989C31.3912 63.8954 32.0881 59.86 33.4818 55.5927C34.8756 51.9747 36.4087 48.8669 38.0812 46.2694C39.6608 43.8575 41.5656 41.7238 43.7956 39.8684C46.0256 38.0131 48.0697 36.6679 49.9281 35.833C51.7864 34.9981 53.7376 34.2559 55.7818 33.6066C57.826 32.9572 59.1733 32.5861 59.8237 32.4933C60.4741 32.4006 60.9851 32.3542 61.3568 32.3542L48.3949 84.8147H47.4193C45.6539 84.5364 44.0743 84.1653 42.6806 83.7015C41.2868 83.2376 39.6143 82.4027 37.6631 81.1967C35.7118 79.9907 34.1787 78.2281 33.0637 75.9089Z" fill="#212529"/>
<path d="M81.8449 40.2859C83.3316 42.7906 84.0749 45.8056 84.0749 49.3308C84.0749 51.1862 83.7962 53.4126 83.2387 56.0101C82.6812 58.6076 81.7985 61.5762 80.5905 64.9159C79.3826 68.2555 77.3385 71.5024 74.458 74.6565C71.5776 77.8107 68.1397 80.269 64.1443 82.0316C62.6576 82.7738 60.7993 83.4231 58.5693 83.9798C56.3393 84.5364 54.8526 84.8147 54.1093 84.8147C54.0164 84.8147 53.9699 84.7219 53.9699 84.5364L60.6599 58.3757L67.0712 32.3542H67.4893C68.3255 32.3542 69.4405 32.5397 70.8343 32.9108C72.2281 33.2819 74.0399 33.9776 76.2699 34.9981C78.4999 36.0185 80.3583 37.7811 81.8449 40.2859Z" fill="#212529"/>
</svg>
