<svg width="218" height="84" viewBox="0 0 218 84" fill="none" xmlns="http://www.w3.org/2000/svg">
<path d="M65.1642 0.574723C65.4147 0.201102 65.7906 0.0142908 66.2917 0.0142908H67.0434H68.2649C68.6407 0.387912 68.8286 0.636994 68.8286 0.761534C68.8286 1.19743 67.889 5.02705 66.0098 12.2504C65.5713 13.994 65.1329 15.8309 64.6944 17.7613C64.2559 19.6917 63.8801 21.1239 63.5669 22.058L63.191 23.5525C63.191 23.6147 63.4729 23.6459 64.0367 23.6459C64.6004 23.6459 65.6027 23.8327 67.0434 24.2063C68.4841 24.5799 69.9875 25.1092 71.5534 25.7942C74.3096 27.1019 76.596 29.0011 78.4125 31.4919C80.2291 33.9827 81.1373 37.0028 81.1373 40.5522C81.1373 44.1016 80.1664 47.4954 78.2246 50.7334C76.2828 53.9715 73.8711 56.6491 70.9897 58.7663C68.1083 60.8835 65.0702 62.5648 61.8756 63.8102C58.681 65.0556 55.7056 65.7094 52.9494 65.7717H52.5736L50.3185 74.6452C49.9427 76.0774 49.5356 77.7899 49.0971 79.7825C48.596 81.7752 48.2514 82.9583 48.0635 83.3319C47.8756 83.7055 47.4998 83.9235 46.936 83.9857H46.3722C45.1194 83.9857 44.493 83.7678 44.493 83.3319C44.493 83.0206 45.1821 80.0627 46.5602 74.4584L48.7212 65.8651C48.7212 65.8028 48.4707 65.7717 47.9696 65.7717C47.6564 65.7717 47.03 65.7094 46.0904 65.5849C45.1508 65.4603 43.7414 65.0245 41.8622 64.2772C39.983 63.53 38.2917 62.5959 36.7883 61.475C35.285 60.3542 33.8756 58.704 32.5602 56.5246C31.2447 54.3451 30.6496 51.792 30.7749 48.8653C30.7749 45.1291 31.8085 41.6108 33.8756 38.3105C35.9427 35.0102 38.4796 32.3326 41.4863 30.2776C44.493 28.2227 47.5311 26.6037 50.6004 25.4206C53.6698 24.2374 56.4259 23.6459 58.8689 23.6459C59.1821 23.6459 59.37 23.5213 59.4326 23.2722L62.2514 11.8768C64.1933 4.46661 65.1642 0.699264 65.1642 0.574723ZM38.1977 50.8268C38.1977 52.944 38.5736 54.781 39.3253 56.3377C40.0769 57.8945 41.1105 59.0776 42.4259 59.8872C43.7414 60.6967 44.8689 61.2571 45.8085 61.5685C46.7481 61.8798 47.813 62.1289 49.0031 62.3157H49.6608L58.3991 27.1019C58.1485 27.1019 57.804 27.133 57.3655 27.1953C56.9271 27.2575 56.0188 27.5066 54.6407 27.9425C53.2626 28.3784 51.9472 28.8766 50.6944 29.437C49.4416 29.9974 48.0635 30.9003 46.5602 32.1457C45.0568 33.3912 43.7727 34.8234 42.7078 36.4424C41.5803 38.186 40.5467 40.272 39.6071 42.7006C38.6675 45.565 38.1977 48.2737 38.1977 50.8268ZM73.7145 38.4973C73.7145 36.131 73.2134 34.1073 72.2112 32.426C71.2089 30.7447 69.9561 29.5615 68.4528 28.8766C66.9494 28.1916 65.7279 27.7246 64.7883 27.4755C63.8488 27.2264 63.0971 27.1019 62.5333 27.1019H62.2514L57.9293 44.5687L53.4192 62.1289C53.4192 62.2534 53.4505 62.3157 53.5132 62.3157C54.0143 62.3157 55.0165 62.1289 56.5199 61.7553C58.0232 61.3816 59.276 60.9457 60.2783 60.4476C62.9718 59.2645 65.2895 57.6143 67.2313 55.4971C69.1731 53.3799 70.5512 51.2005 71.3655 48.9587C72.1798 46.717 72.7749 44.7243 73.1508 42.9808C73.5266 41.2372 73.7145 39.7427 73.7145 38.4973Z" fill="black"/>
<path d="M106.448 31.8946C106.448 30.2423 106.014 29.0795 105.147 28.4063C104.28 27.7331 103.313 27.3965 102.245 27.3965C99.7771 27.3965 97.5424 28.4369 95.5412 30.5177C93.54 32.5984 92.0391 35.1076 91.0385 38.0451C90.905 38.5959 90.7383 38.9019 90.5381 38.9631C90.338 39.0243 89.7377 39.0549 88.7371 39.0549H87.036C86.7692 38.8101 86.6024 38.6571 86.5357 38.5959C86.469 38.5347 86.4357 38.3817 86.4357 38.1369C86.4357 37.8921 86.5357 37.5249 86.7359 37.0353C87.4029 35.077 88.4369 33.1492 89.8377 31.2521C91.2386 29.3549 92.7061 27.8861 94.2404 26.8458C97.0421 24.9486 99.7771 24 102.445 24C107.182 24 110.45 25.7136 112.251 29.1407C114.92 25.7136 118.055 24 121.657 24C123.925 24 125.926 24.6426 127.661 25.9278C129.395 27.213 130.262 28.9571 130.262 31.1603C130.262 33.3634 129.628 34.9546 128.361 35.9337C127.094 36.9129 125.726 37.4025 124.259 37.4025C123.125 37.4025 122.191 37.1271 121.457 36.5763C120.723 36.0255 120.356 35.23 120.356 34.1896C120.356 32.9044 120.69 31.8334 121.357 30.9767C122.024 30.1199 122.758 29.5079 123.558 29.1407L124.559 28.7735C124.025 27.9167 122.858 27.4883 121.057 27.4883H120.756C118.355 27.4883 116.354 29.4161 114.753 33.2716C114.553 33.8224 113.552 37.3107 111.751 43.7365C109.95 50.1624 108.949 53.8955 108.749 54.9359C108.549 55.8538 108.449 56.7718 108.449 57.6898C108.449 60.6885 109.917 62.1879 112.852 62.1879C114.586 62.1879 116.22 61.6677 117.755 60.6273C119.289 59.5869 120.49 58.3936 121.357 57.0472C122.224 55.7008 122.891 54.4463 123.358 53.2835C123.825 52.1207 124.058 51.4169 124.058 51.1721L124.659 50.5296H126.36C127.427 50.5296 128.061 50.5602 128.261 50.6214C128.461 50.6826 128.561 50.9274 128.561 51.3557C128.561 52.0289 128.228 53.0693 127.561 54.4769C126.893 55.8844 125.893 57.4756 124.559 59.2503C123.225 61.0251 121.49 62.4939 119.356 63.6566C117.221 64.8194 114.853 65.462 112.251 65.5844C108.449 65.5844 105.247 63.8708 102.645 60.4437C99.9772 63.8708 96.942 65.5844 93.54 65.5844C91.0051 65.5844 88.9038 64.9418 87.2362 63.6566C85.5685 62.3715 84.7346 60.6273 84.7346 58.4242C84.7346 56.4658 85.335 54.9359 86.5357 53.8343C87.7365 52.7327 89.1707 52.1819 90.8383 52.1819C91.9723 52.1819 92.9062 52.5185 93.64 53.1917C94.3738 53.8649 94.7407 54.7217 94.7407 55.762C94.7407 56.1904 94.7073 56.527 94.6406 56.7718C94.107 58.4854 93.0397 59.7093 91.4387 60.4437L90.4381 60.8109C91.1052 61.7289 92.3059 62.1879 94.0403 62.1879C95.3744 62.1879 96.5751 61.6065 97.6424 60.4437C98.7098 59.2809 99.6103 57.8122 100.344 56.0374C100.544 55.4866 101.545 51.9065 103.346 45.2971C105.147 38.6877 106.114 35.0158 106.248 34.2814C106.381 33.7306 106.448 32.935 106.448 31.8946Z" fill="black"/>
<path d="M135.379 49.3362C135.379 45.4195 136.179 41.8394 137.78 38.5958C139.381 35.3523 141.449 32.7208 143.984 30.7012C146.519 28.6817 149.087 27.1211 151.689 26.0196C154.29 24.918 156.792 24.2754 159.193 24.0918C159.26 24.0918 159.493 24.0918 159.894 24.0918C160.294 24.0918 160.594 24.0612 160.794 24H161.094C164.096 24 166.598 24.7344 168.599 26.2032C170.6 27.6719 171.634 29.5997 171.701 31.9864C171.701 37.1883 168.232 40.7378 161.294 42.6349C157.425 43.6141 152.489 44.1037 146.486 44.1037H145.185C144.117 47.7144 143.584 50.7131 143.584 53.0999C143.584 55.6702 144.151 57.8121 145.285 59.5257C146.419 61.2393 148.253 62.096 150.788 62.096C153.99 62.096 157.059 61.3923 159.994 59.9847C162.929 58.5771 165.364 56.7718 167.298 54.5686C167.965 53.8343 168.432 53.4671 168.699 53.4671C168.966 53.4671 169.399 53.7731 170 54.385C170.6 54.997 171.034 55.4254 171.301 55.6702C171.501 55.9762 171.134 56.5882 170.2 57.5062C168.132 59.7093 165.364 61.5759 161.895 63.1058C158.426 64.6358 154.624 65.4314 150.488 65.4926C145.552 65.4926 141.816 63.932 139.281 60.8109C136.746 57.6898 135.446 53.8648 135.379 49.3362ZM166.297 34.006C166.297 34.006 166.297 33.3634 166.297 32.0782C166.297 30.793 165.797 29.6915 164.797 28.7735C163.796 27.8555 162.428 27.3965 160.694 27.3965C158.159 27.3965 155.891 28.0391 153.89 29.3243C151.889 30.6094 150.355 32.0782 149.287 33.7306C148.22 35.3829 147.453 36.8517 146.986 38.1368C146.519 39.422 146.252 40.2482 146.185 40.6154C146.185 40.6766 147.019 40.7072 148.687 40.7072C150.154 40.646 151.355 40.5848 152.289 40.5236C153.223 40.4624 154.49 40.34 156.091 40.1564C157.692 39.9728 158.993 39.6974 159.994 39.3302C160.994 38.963 162.028 38.4734 163.096 37.8615C164.163 37.2495 164.963 36.4539 165.497 35.4747L166.297 34.006Z" fill="black"/>
<path d="M177.418 39.0549C177.018 38.6877 176.817 38.3511 176.817 38.0451C176.951 37.3107 177.418 35.7807 178.218 33.4552C180.42 27.1518 183.555 24 187.624 24C190.025 24 191.96 24.5202 193.427 25.5606C194.895 26.601 195.896 27.8555 196.429 29.3243L197.63 28.2227C200.565 25.4076 203.934 24 207.736 24C210.404 24 212.739 24.6426 214.74 25.9278C216.742 27.213 217.742 29.0183 217.742 31.3438C217.742 33.4858 217.075 35.0158 215.741 35.9337C214.407 36.8517 213.073 37.3413 211.739 37.4025C210.604 37.4025 209.671 37.1271 208.937 36.5763C208.203 36.0255 207.836 35.23 207.836 34.1896C207.836 32.9044 208.136 31.864 208.737 31.0685C209.337 30.2729 210.004 29.6915 210.738 29.3243C211.472 28.9571 211.805 28.7735 211.739 28.7735C210.738 27.8555 209.204 27.3965 207.136 27.3965C203.4 27.3965 199.998 30.1505 196.93 35.6583L196.129 37.0353L192.727 49.7952C190.459 58.1182 189.192 62.5551 188.925 63.1058C187.991 64.7582 186.523 65.5844 184.522 65.5844C182.521 65.5844 181.454 64.697 181.32 62.9222C181.32 62.6163 182.621 57.6286 185.222 47.9592C187.891 38.0451 189.225 32.9962 189.225 32.8126C189.425 31.9558 189.525 31.1603 189.525 30.4259C189.525 28.4063 188.858 27.3965 187.524 27.3965C186.323 27.3965 185.256 28.2533 184.322 29.9669C183.388 31.6804 182.654 33.547 182.121 35.5665C181.587 37.5861 181.22 38.6877 181.02 38.8713C180.887 38.9937 180.253 39.0549 179.119 39.0549H177.418Z" fill="black"/>
<rect x="0.700785" y="10.5745" width="167.234" height="68.4354" fill="url(#paint0_linear_53_22)"/>
<line x1="6.70078" y1="10.5745" x2="6.70078" y2="79.0099" stroke="black" stroke-width="12"/>
<defs>
<linearGradient id="paint0_linear_53_22" x1="0.700785" y1="10.5745" x2="166.12" y2="27.8994" gradientUnits="userSpaceOnUse">
<stop stop-opacity="0.2"/>
<stop offset="1" stop-color="#C4C4C4" stop-opacity="0"/>
</linearGradient>
</defs>
</svg>
