<svg width="188" height="84" viewBox="0 0 188 84" fill="none" xmlns="http://www.w3.org/2000/svg">
<path d="M34.4295 0.574693C34.6801 0.201071 35.0559 0.0142603 35.557 0.0142603H36.3087H37.5302C37.906 0.387882 38.094 0.636963 38.094 0.761504C38.094 1.1974 37.1544 5.02702 35.2752 12.2504C34.8367 13.9939 34.3982 15.8309 33.9597 17.7613C33.5213 19.6917 33.1454 21.1239 32.8322 22.0579L32.4564 23.5524C32.4564 23.6147 32.7383 23.6458 33.302 23.6458C33.8658 23.6458 34.868 23.8326 36.3087 24.2063C37.7494 24.5799 39.2528 25.1092 40.8188 25.7942C43.5749 27.1018 45.8613 29.0011 47.6779 31.4919C49.4944 33.9827 50.4027 37.0028 50.4027 40.5522C50.4027 44.1016 49.4318 47.4953 47.4899 50.7334C45.5481 53.9714 43.1365 56.6491 40.255 58.7663C37.3736 60.8834 34.3356 62.5647 31.1409 63.8102C27.9463 65.0556 24.9709 65.7094 22.2148 65.7717H21.8389L19.5839 74.6452C19.2081 76.0774 18.8009 77.7898 18.3624 79.7825C17.8613 81.7751 17.5168 82.9583 17.3289 83.3319C17.1409 83.7055 16.7651 83.9234 16.2013 83.9857H15.6376C14.3848 83.9857 13.7584 83.7678 13.7584 83.3319C13.7584 83.0205 14.4474 80.0627 15.8255 74.4584L17.9866 65.8651C17.9866 65.8028 17.736 65.7717 17.2349 65.7717C16.9217 65.7717 16.2953 65.7094 15.3557 65.5849C14.4161 65.4603 13.0067 65.0244 11.1275 64.2772C9.24832 63.5299 7.55705 62.5959 6.05369 61.475C4.55033 60.3542 3.14094 58.704 1.8255 56.5245C0.510065 54.3451 -0.085013 51.792 0.0402666 48.8653C0.0402666 45.1291 1.07382 41.6108 3.14094 38.3105C5.20805 35.0102 7.74496 32.3325 10.7517 30.2776C13.7584 28.2227 16.7964 26.6037 19.8658 25.4205C22.9351 24.2374 25.6913 23.6458 28.1342 23.6458C28.4474 23.6458 28.6353 23.5213 28.698 23.2722L31.5168 11.8767C33.4586 4.46658 34.4295 0.699233 34.4295 0.574693ZM7.46309 50.8268C7.46309 52.944 7.83892 54.781 8.5906 56.3377C9.34228 57.8945 10.3758 59.0776 11.6913 59.8871C13.0067 60.6966 14.1342 61.2571 15.0738 61.5684C16.0134 61.8798 17.0783 62.1289 18.2685 62.3157H18.9262L27.6644 27.1018C27.4139 27.1018 27.0694 27.133 26.6309 27.1952C26.1924 27.2575 25.2841 27.5066 23.906 27.9425C22.528 28.3784 21.2125 28.8765 19.9597 29.437C18.7069 29.9974 17.3289 30.9003 15.8255 32.1457C14.3221 33.3911 13.038 34.8233 11.9732 36.4424C10.8456 38.1859 9.81208 40.272 8.87248 42.7005C7.93288 45.565 7.46309 48.2737 7.46309 50.8268ZM42.9799 38.4973C42.9799 36.131 42.4787 34.1072 41.4765 32.4259C40.4743 30.7446 39.2215 29.5615 37.7181 28.8765C36.2148 28.1916 34.9933 27.7245 34.0537 27.4754C33.1141 27.2264 32.3624 27.1018 31.7987 27.1018H31.5168L27.1946 44.5686L22.6846 62.1289C22.6846 62.2534 22.7159 62.3157 22.7785 62.3157C23.2796 62.3157 24.2819 62.1289 25.7852 61.7552C27.2886 61.3816 28.5414 60.9457 29.5436 60.4476C32.2371 59.2644 34.5548 57.6143 36.4966 55.4971C38.4385 53.3799 39.8166 51.2004 40.6309 48.9587C41.4452 46.717 42.0403 44.7243 42.4161 42.9807C42.7919 41.2372 42.9799 39.7427 42.9799 38.4973Z" fill="black"/>
<path d="M75.7131 31.8946C75.7131 30.2422 75.2795 29.0795 74.4123 28.4063C73.5451 27.7331 72.5779 27.3965 71.5106 27.3965C69.0424 27.3965 66.8077 28.4369 64.8065 30.5176C62.8053 32.5984 61.3044 35.1075 60.3038 38.045C60.1704 38.5958 60.0036 38.9018 59.8035 38.963C59.6034 39.0242 59.003 39.0548 58.0024 39.0548H56.3014C56.0346 38.81 55.8678 38.657 55.8011 38.5958C55.7344 38.5346 55.701 38.3816 55.701 38.1368C55.701 37.8921 55.8011 37.5249 56.0012 37.0353C56.6683 35.0769 57.7022 33.1492 59.1031 31.252C60.5039 29.3549 61.9715 27.8861 63.5057 26.8457C66.3074 24.9486 69.0424 24 71.7107 24C76.4469 24 79.7155 25.7136 81.5166 29.1407C84.1849 25.7136 87.3201 24 90.9223 24C93.1903 24 95.1916 24.6426 96.9259 25.9278C98.6603 27.2129 99.5275 28.9571 99.5275 31.1602C99.5275 33.3634 98.8938 34.9545 97.6264 35.9337C96.3589 36.9129 94.9914 37.4025 93.5239 37.4025C92.3899 37.4025 91.456 37.1271 90.7222 36.5763C89.9884 36.0255 89.6215 35.2299 89.6215 34.1895C89.6215 32.9044 89.9551 31.8334 90.6221 30.9766C91.2892 30.1198 92.023 29.5079 92.8235 29.1407L93.8241 28.7735C93.2904 27.9167 92.123 27.4883 90.3219 27.4883H90.0218C87.6203 27.4883 85.6191 29.4161 84.0181 33.2716C83.818 33.8224 82.8174 37.3107 81.0163 43.7365C79.2152 50.1623 78.2146 53.8954 78.0145 54.9358C77.8144 55.8538 77.7143 56.7718 77.7143 57.6898C77.7143 60.6885 79.1819 62.1878 82.117 62.1878C83.8514 62.1878 85.4857 61.6676 87.0199 60.6273C88.5542 59.5869 89.7549 58.3935 90.6221 57.0472C91.4893 55.7008 92.1564 54.4462 92.6233 53.2835C93.0903 52.1207 93.3238 51.4169 93.3238 51.1721L93.9241 50.5295H95.6251C96.6925 50.5295 97.3262 50.5601 97.5263 50.6213C97.7264 50.6825 97.8265 50.9273 97.8265 51.3557C97.8265 52.0289 97.4929 53.0693 96.8259 54.4768C96.1588 55.8844 95.1582 57.4756 93.8241 59.2503C92.4899 61.0251 90.7555 62.4938 88.6209 63.6566C86.4863 64.8194 84.1182 65.462 81.5166 65.5844C77.7143 65.5844 74.5124 63.8708 71.9108 60.4437C69.2425 63.8708 66.2074 65.5844 62.8053 65.5844C60.2705 65.5844 58.1692 64.9418 56.5015 63.6566C54.8338 62.3714 54 60.6273 54 58.4241C54 56.4658 54.6004 54.9358 55.8011 53.8342C57.0018 52.7327 58.436 52.1819 60.1037 52.1819C61.2377 52.1819 62.1716 52.5185 62.9054 53.1917C63.6392 53.8648 64.006 54.7216 64.006 55.762C64.006 56.1904 63.9727 56.527 63.906 56.7718C63.3723 58.4853 62.305 59.7093 60.7041 60.4437L59.7034 60.8109C60.3705 61.7288 61.5712 62.1878 63.3056 62.1878C64.6398 62.1878 65.8405 61.6065 66.9078 60.4437C67.9751 59.2809 68.8757 57.8121 69.6094 56.0374C69.8096 55.4866 70.8102 51.9065 72.6112 45.2971C74.4123 38.6876 75.3796 35.0157 75.513 34.2813C75.6464 33.7306 75.7131 32.935 75.7131 31.8946Z" fill="black"/>
<path d="M104.644 49.3361C104.644 45.4194 105.445 41.8393 107.046 38.5958C108.647 35.3523 110.715 32.7208 113.249 30.7012C115.784 28.6817 118.352 27.1211 120.954 26.0195C123.556 24.918 126.057 24.2754 128.459 24.0918C128.525 24.0918 128.759 24.0918 129.159 24.0918C129.559 24.0918 129.859 24.0612 130.06 24H130.36C133.362 24 135.863 24.7344 137.864 26.2031C139.865 27.6719 140.899 29.5996 140.966 31.9864C140.966 37.1882 137.497 40.7378 130.56 42.6349C126.691 43.6141 121.755 44.1037 115.751 44.1037H114.45C113.383 47.7144 112.849 50.7131 112.849 53.0998C112.849 55.6702 113.416 57.8121 114.55 59.5257C115.684 61.2392 117.519 62.096 120.053 62.096C123.255 62.096 126.324 61.3922 129.259 59.9847C132.194 58.5771 134.629 56.7717 136.563 54.5686C137.231 53.8342 137.697 53.467 137.964 53.467C138.231 53.467 138.665 53.773 139.265 54.385C139.865 54.997 140.299 55.4254 140.566 55.6702C140.766 55.9762 140.399 56.5881 139.465 57.5061C137.397 59.7093 134.629 61.5758 131.16 63.1058C127.691 64.6357 123.889 65.4313 119.753 65.4925C114.817 65.4925 111.081 63.932 108.547 60.8108C106.012 57.6897 104.711 53.8648 104.644 49.3361ZM135.563 34.0059C135.563 34.0059 135.563 33.3633 135.563 32.0782C135.563 30.793 135.063 29.6914 134.062 28.7735C133.061 27.8555 131.694 27.3965 129.959 27.3965C127.425 27.3965 125.157 28.0391 123.155 29.3242C121.154 30.6094 119.62 32.0782 118.553 33.7305C117.485 35.3829 116.718 36.8517 116.251 38.1368C115.784 39.422 115.517 40.2482 115.451 40.6154C115.451 40.6766 116.285 40.7072 117.952 40.7072C119.42 40.646 120.62 40.5848 121.554 40.5236C122.488 40.4624 123.756 40.34 125.357 40.1564C126.958 39.9728 128.258 39.6974 129.259 39.3302C130.26 38.963 131.294 38.4734 132.361 37.8614C133.428 37.2494 134.229 36.4539 134.762 35.4747L135.563 34.0059Z" fill="black"/>
<path d="M146.683 39.0548C146.283 38.6876 146.083 38.351 146.083 38.045C146.216 37.3107 146.683 35.7807 147.484 33.4552C149.685 27.1517 152.82 24 156.889 24C159.291 24 161.225 24.5202 162.693 25.5606C164.16 26.6009 165.161 27.8555 165.695 29.3243L166.895 28.2227C169.83 25.4076 173.199 24 177.001 24C179.67 24 182.004 24.6426 184.006 25.9278C186.007 27.2129 187.008 29.0183 187.008 31.3438C187.008 33.4858 186.34 35.0157 185.006 35.9337C183.672 36.8517 182.338 37.3413 181.004 37.4025C179.87 37.4025 178.936 37.1271 178.202 36.5763C177.468 36.0255 177.102 35.2299 177.102 34.1895C177.102 32.9044 177.402 31.864 178.002 31.0684C178.602 30.2728 179.269 29.6915 180.003 29.3243C180.737 28.9571 181.071 28.7735 181.004 28.7735C180.003 27.8555 178.469 27.3965 176.401 27.3965C172.666 27.3965 169.263 30.1504 166.195 35.6583L165.394 37.0353L161.992 49.7952C159.724 58.1181 158.457 62.555 158.19 63.1058C157.256 64.7582 155.789 65.5844 153.787 65.5844C151.786 65.5844 150.719 64.697 150.585 62.9222C150.585 62.6162 151.886 57.6286 154.488 47.9592C157.156 38.045 158.49 32.9962 158.49 32.8126C158.69 31.9558 158.79 31.1602 158.79 30.4258C158.79 28.4063 158.123 27.3965 156.789 27.3965C155.589 27.3965 154.521 28.2533 153.587 29.9669C152.653 31.6804 151.92 33.547 151.386 35.5665C150.852 37.5861 150.485 38.6876 150.285 38.8712C150.152 38.9936 149.518 39.0548 148.384 39.0548H146.683Z" fill="black"/>
</svg>
