<?xml version="1.0" encoding="utf-8"?>
<!-- Generator: Adobe Illustrator 24.2.3, SVG Export Plug-In . SVG Version: 6.00 Build 0)  -->
<svg version="1.1" id="Слой_1" xmlns="http://www.w3.org/2000/svg" xmlns:xlink="http://www.w3.org/1999/xlink" x="0px" y="0px"
	 viewBox="0 0 84 84" style="enable-background:new 0 0 84 84;" xml:space="preserve">
<style type="text/css">
	.st0{fill:none;stroke:#000000;stroke-width:12;}
</style>
<path d="M57.7,0.6C58,0.2,58.4,0,58.9,0h0.8h1.2c0.4,0.4,0.6,0.6,0.6,0.7c0,0.4-0.9,4.3-2.8,11.5c-0.4,1.7-0.9,3.6-1.3,5.5
	c-0.4,1.9-0.8,3.4-1.1,4.3l-0.4,1.5c0,0.1,0.3,0.1,0.8,0.1c0.6,0,1.6,0.2,3,0.6s2.9,0.9,4.5,1.6c2.8,1.3,5,3.2,6.9,5.7
	c1.8,2.5,2.7,5.5,2.7,9.1s-1,6.9-2.9,10.2c-1.9,3.2-4.4,5.9-7.2,8s-5.9,3.8-9.1,5s-6.2,1.9-8.9,2h-0.4L43,74.7
	c-0.4,1.4-0.8,3.1-1.2,5.1c-0.5,2-0.8,3.2-1,3.5c-0.2,0.4-0.6,0.6-1.1,0.7h-0.6c-1.3,0-1.9-0.2-1.9-0.7c0-0.3,0.7-3.3,2.1-8.9
	l2.2-8.6c0-0.1-0.3-0.1-0.8-0.1c-0.3,0-0.9-0.1-1.9-0.2c-0.9-0.1-2.3-0.6-4.2-1.3c-1.9-0.7-3.6-1.7-5.1-2.8s-2.9-2.8-4.2-5
	s-1.9-4.7-1.8-7.7c0-3.7,1-7.3,3.1-10.6s4.6-6,7.6-8c3-2.1,6-3.7,9.1-4.9c3.1-1.2,5.8-1.8,8.3-1.8c0.3,0,0.5-0.1,0.6-0.4L55,11.6
	C56.8,4.5,57.7,0.7,57.7,0.6z M30.8,50.8c0,2.1,0.4,4,1.1,5.5c0.8,1.6,1.8,2.7,3.1,3.5s2.4,1.4,3.4,1.7c0.9,0.3,2,0.6,3.2,0.7h0.7
	L51,27.1c-0.3,0-0.6,0-1,0.1s-1.3,0.3-2.7,0.7c-1.4,0.4-2.7,0.9-3.9,1.5s-2.6,1.5-4.1,2.7s-2.8,2.7-3.9,4.3
	c-1.1,1.7-2.2,3.8-3.1,6.3C31.2,45.6,30.8,48.3,30.8,50.8z M66.3,38.5c0-2.4-0.5-4.4-1.5-6.1c-1-1.7-2.3-2.9-3.8-3.5
	c-1.5-0.7-2.7-1.2-3.7-1.4c-0.9-0.2-1.7-0.4-2.3-0.4h-0.3l-4.3,17.5L46,62.1c0,0.1,0,0.2,0.1,0.2c0.5,0,1.5-0.2,3-0.6
	c1.5-0.4,2.8-0.8,3.8-1.3c2.7-1.2,5-2.8,7-5s3.3-4.3,4.1-6.5s1.4-4.2,1.8-6C66.1,41.2,66.3,39.7,66.3,38.5z"/>
<line class="st0" x1="6.7" y1="10.6" x2="6.7" y2="79"/>
</svg>
