<svg width="73" height="49" viewBox="0 0 73 49" fill="none" xmlns="http://www.w3.org/2000/svg">
<path d="M22 16V16.5H22.5L66.5 16.4999C69.5376 16.4999 72 18.9624 72 21.9999V42.9999C72 46.0375 69.5376 48.4999 66.5 48.4999H6C2.96242 48.4999 0.5 46.0375 0.5 42.9999H0L0.5 42.9998V42.9995V42.999V42.9984V42.9975V42.9964V42.9952V42.9937V42.9921V42.9902V42.9882V42.986V42.9836V42.9809V42.9781V42.9752V42.972V42.9686V42.965V42.9613V42.9573V42.9532V42.9489V42.9444V42.9396V42.9347V42.9297V42.9244V42.9189V42.9133V42.9074V42.9014V42.8952V42.8888V42.8822V42.8754V42.8684V42.8613V42.854V42.8464V42.8387V42.8308V42.8227V42.8144V42.806V42.7973V42.7885V42.7795V42.7703V42.7609V42.7514V42.7416V42.7317V42.7215V42.7112V42.7008V42.6901V42.6792V42.6682V42.657V42.6456V42.634V42.6222V42.6103V42.5981V42.5858V42.5733V42.5607V42.5478V42.5348V42.5216V42.5082V42.4946V42.4808V42.4669V42.4528V42.4385V42.424V42.4094V42.3945V42.3795V42.3643V42.349V42.3334V42.3177V42.3018V42.2857V42.2695V42.253V42.2364V42.2196V42.2027V42.1856V42.1682V42.1508V42.1331V42.1153V42.0972V42.0791V42.0607V42.0422V42.0234V42.0046V41.9855V41.9663V41.9469V41.9273V41.9075V41.8876V41.8675V41.8472V41.8268V41.8062V41.7854V41.7644V41.7433V41.722V41.7005V41.6789V41.6571V41.6351V41.613V41.5906V41.5681V41.5455V41.5226V41.4996V41.4765V41.4531V41.4296V41.406V41.3821V41.3581V41.3339V41.3096V41.2851V41.2604V41.2355V41.2105V41.1853V41.16V41.1345V41.1088V41.0829V41.0569V41.0307V41.0044V40.9779V40.9512V40.9244V40.8974V40.8702V40.8429V40.8154V40.7877V40.7599V40.7319V40.7038V40.6755V40.647V40.6184V40.5896V40.5606V40.5315V40.5022V40.4728V40.4432V40.4134V40.3835V40.3534V40.3231V40.2927V40.2622V40.2314V40.2006V40.1695V40.1383V40.1069V40.0754V40.0437V40.0119V39.9799V39.9477V39.9154V39.883V39.8503V39.8175V39.7846V39.7515V39.7183V39.6848V39.6513V39.6175V39.5837V39.5496V39.5154V39.4811V39.4466V39.4119V39.3771V39.3422V39.3071V39.2718V39.2364V39.2008V39.165V39.1292V39.0931V39.0569V39.0206V38.9841V38.9474V38.9106V38.8737V38.8366V38.7993V38.7619V38.7244V38.6867V38.6488V38.6108V38.5726V38.5343V38.4959V38.4573V38.4185V38.3796V38.3405V38.3013V38.262V38.2225V38.1828V38.1431V38.1031V38.063V38.0228V37.9824V37.9419V37.9012V37.8604V37.8194V37.7783V37.737V37.6956V37.654V37.6123V37.5705V37.5285V37.4864V37.4441V37.4017V37.3591V37.3164V37.2735V37.2305V37.1874V37.1441V37.1007V37.0571V37.0134V36.9696V36.9256V36.8814V36.8371V36.7927V36.7481V36.7034V36.6586V36.6136V36.5685V36.5232V36.4778V36.4323V36.3866V36.3408V36.2948V36.2487V36.2025V36.1561V36.1096V36.0629V36.0161V35.9692V35.9221V35.8749V35.8275V35.7801V35.7324V35.6847V35.6368V35.5888V35.5406V35.4923V35.4439V35.3953V35.3466V35.2977V35.2488V35.1997V35.1504V35.101V35.0515V35.0019V34.9521V34.9022V34.8521V34.8019V34.7516V34.7012V34.6506V34.5999V34.5491V34.4981V34.447V34.3957V34.3444V34.2929V34.2412V34.1895V34.1376V34.0856V34.0334V33.9811V33.9287V33.8762V33.8235V33.7707V33.7178V33.6647V33.6116V33.5582V33.5048V33.4512V33.3975V33.3437V33.2898V33.2357V33.1815V33.1272V33.0727V33.0181V32.9634V32.9086V32.8536V32.7985V32.7433V32.688V32.6325V32.5769V32.5212V32.4654V32.4094V32.3534V32.2972V32.2408V32.1844V32.1278V32.0711V32.0143V31.9573V31.9003V31.8431V31.7858V31.7284V31.6708V31.6131V31.5554V31.4974V31.4394V31.3813V31.323V31.2646V31.2061V31.1474V31.0887V31.0298V30.9708V30.9117V30.8525V30.7931V30.7337V30.6741V30.6144V30.5546V30.4947V30.4346V30.3744V30.3141V30.2537V30.1932V30.1326V30.0718V30.011V29.95V29.8889V29.8277V29.7664V29.7049V29.6434V29.5817V29.5199V29.458V29.396V29.3339V29.2716V29.2093V29.1468V29.0843V29.0216V28.9588V28.8959V28.8328V28.7697V28.7064V28.6431V28.5796V28.516V28.4523V28.3885V28.3246V28.2606V28.1965V28.1322V28.0679V28.0034V27.9388V27.8742V27.8094V27.7445V27.6795V27.6144V27.5491V27.4838V27.4184V27.3528V27.2872V27.2214V27.1556V27.0896V27.0235V26.9573V26.8911V26.8247V26.7582V26.6916V26.6249V26.558V26.4911V26.4241V26.357V26.2897V26.2224V26.155V26.0874V26.0198V25.952V25.8842V25.8162V25.7482V25.68V25.6118V25.5434V25.4749V25.4064V25.3377V25.2689V25.2001V25.1311V25.062V24.9929V24.9236V24.8542V24.7847V24.7152V24.6455V24.5757V24.5059V24.4359V24.3659V24.2957V24.2254V24.1551V24.0846V24.0141V23.9434V23.8727V23.8018V23.7309V23.6599V23.5887V23.5175V23.4462V23.3748V23.3033V23.2316V23.1599V23.0881V23.0163V22.9443V22.8722V22.8V22.7277V22.6554V22.5829V22.5104V22.4377V22.365V22.2922V22.2192V22.1462V22.0731V21.9999C0.5 9.95749 9.99651 0.754298 22 0.505182V16Z" fill="#F8F9FA" stroke="#DFDFDF"/>
</svg>
