<svg width="60" height="78" viewBox="0 0 60 78" fill="none" xmlns="http://www.w3.org/2000/svg">
<path d="M38.1429 2.0001L6.50002 2.00001C3.73859 2.00001 1.5 4.23858 1.5 7.00001V71C1.5 73.7614 3.73858 76 6.5 76H53.5C56.2614 76 58.5 73.7614 58.5 71V22.5555M38.1429 2.0001L58.5 22.5555M38.1429 2.0001V17.5555C38.1429 20.3169 40.3814 22.5555 43.1429 22.5555H58.5" stroke="#CCCCCC" stroke-width="3" stroke-linecap="round" stroke-linejoin="round"/>
<path d="M13.5 38.8125V42.1875M18.5 33.75V47.25M23.5 37.125V43.875M28.5 32.0625V48.9375M33.5 27V54M38.5 35.4375V45.5625M43.5 38.8125V42.1875" stroke="#CCCCCC" stroke-width="3" stroke-linecap="round" stroke-linejoin="round"/>
</svg>
